<svg width="40" height="30" viewBox="0 0 40 30" fill="none" xmlns="http://www.w3.org/2000/svg">
  <!-- Fond de la puce -->
  <rect x="2" y="2" width="36" height="26" rx="3" fill="#C4A962" stroke="#A08B45" stroke-width="1"/>
  
  <!-- Contacts de la puce -->
  <rect x="6" y="6" width="4" height="3" fill="#8B7355"/>
  <rect x="12" y="6" width="4" height="3" fill="#8B7355"/>
  <rect x="18" y="6" width="4" height="3" fill="#8B7355"/>
  <rect x="24" y="6" width="4" height="3" fill="#8B7355"/>
  <rect x="30" y="6" width="4" height="3" fill="#8B7355"/>
  
  <rect x="6" y="11" width="4" height="3" fill="#8B7355"/>
  <rect x="12" y="11" width="4" height="3" fill="#8B7355"/>
  <rect x="18" y="11" width="4" height="3" fill="#8B7355"/>
  <rect x="24" y="11" width="4" height="3" fill="#8B7355"/>
  <rect x="30" y="11" width="4" height="3" fill="#8B7355"/>
  
  <rect x="6" y="16" width="4" height="3" fill="#8B7355"/>
  <rect x="12" y="16" width="4" height="3" fill="#8B7355"/>
  <rect x="18" y="16" width="4" height="3" fill="#8B7355"/>
  <rect x="24" y="16" width="4" height="3" fill="#8B7355"/>
  <rect x="30" y="16" width="4" height="3" fill="#8B7355"/>
  
  <rect x="6" y="21" width="4" height="3" fill="#8B7355"/>
  <rect x="12" y="21" width="4" height="3" fill="#8B7355"/>
  <rect x="18" y="21" width="4" height="3" fill="#8B7355"/>
  <rect x="24" y="21" width="4" height="3" fill="#8B7355"/>
  <rect x="30" y="21" width="4" height="3" fill="#8B7355"/>
</svg>